<svg id="Layer_2" data-name="Layer 2" xmlns="http://www.w3.org/2000/svg" viewBox="0 0 504.38 478.52"><defs><style>.cls-1{fill:none;stroke:#fff;stroke-miterlimit:10;stroke-width:3px;}</style></defs><polygon class="cls-1" points="154.83 465.29 127.49 390.6 116.15 343.91 116.15 303.89 122.82 262.54 143.5 218.52 158.17 183.84 162.84 121.82 166.84 89.8 190.85 53.79 228.86 36.45 258.21 33.11 288.22 39.12 312.23 51.12 328.91 66.46 338.91 85.14 344.25 105.81 348.25 143.16 348.25 175.17 356.25 202.52 374.93 234.53 388.26 275.21 393.6 299.22 393.6 326.57 386.93 372.59 374.93 411.94 354.25 465.29 154.83 465.29"/><path class="cls-1" d="M322.48,128.86a67.61,67.61,0,1,1-67.6-67.6A67.61,67.61,0,0,1,322.48,128.86Z"/><path class="cls-1" d="M195.19,138.73l-2.37,17Z"/><path class="cls-1" d="M204,125.81l-8.84,12.92Z"/><path class="cls-1" d="M219.34,115.6,204,125.81Z"/><path class="cls-1" d="M233,106.08l-13.61,9.52Z"/><path class="cls-1" d="M244.17,92.81,233,106.08Z"/><path class="cls-1" d="M252.19,78.53l-8,14.28Z"/><path class="cls-1" d="M254.88,61.26l-2.69,17.27Z"/><path class="cls-1" d="M257.78,78.53l-2.9-17.27Z"/><path class="cls-1" d="M264.24,92.81l-6.46-14.28Z"/><path class="cls-1" d="M278.52,109.14,264.24,92.81Z"/><path class="cls-1" d="M294.51,118.32l-16-9.18Z"/><path class="cls-1" d="M307.1,128.86l-12.59-10.54Z"/><path class="cls-1" d="M313.56,140.43l-6.46-11.57Z"/><path class="cls-1" d="M316.31,157.11l-2.75-16.68Z"/></svg>